<svg id="Vrstva_1" data-name="Vrstva 1" xmlns="http://www.w3.org/2000/svg" xmlns:xlink="http://www.w3.org/1999/xlink" width="37.2" height="23.36" viewBox="0 0 37.2 23.36"><defs><clipPath id="clip-path" transform="translate(0 0.36)"/></defs><title>area</title><polygon points="0.61 0.86 10.61 0.86 10.61 15.86 3.61 15.86 0.61 0.86" fill="none" stroke="#161616" stroke-miterlimit="10"/><polygon points="10.61 0.86 10.61 22.86 23.61 22.86 23.61 18.86 27.61 18.86 27.61 0.86 10.61 0.86" fill="none" stroke="#161616" stroke-miterlimit="10"/><polygon points="27.61 0.86 33.61 0.86 36.61 18.86 27.61 18.86 27.61 0.86" fill="none" stroke="#161616" stroke-miterlimit="10"/><g clip-path="url(#clip-path)"><line x1="15.1" y1="0.35" x2="27.62" y2="13.02" fill="none" stroke="#161616" stroke-miterlimit="10"/><line x1="19.1" y1="0.35" x2="27.49" y2="8.9" fill="none" stroke="#161616" stroke-miterlimit="10"/><line x1="23.31" y1="0.36" x2="27.58" y2="4.87" fill="none" stroke="#161616" stroke-miterlimit="10"/><line x1="10.52" y1="16.13" x2="17.26" y2="22.86" fill="none" stroke="#161616" stroke-miterlimit="10"/><line x1="10.61" y1="12.06" x2="21.26" y2="22.86" fill="none" stroke="#161616" stroke-miterlimit="10"/><line x1="10.52" y1="7.98" x2="23.61" y2="21.18" fill="none" stroke="#161616" stroke-miterlimit="10"/><line x1="10.57" y1="3.9" x2="25.32" y2="18.86" fill="none" stroke="#161616" stroke-miterlimit="10"/><line x1="11.6" y1="0.86" x2="27.62" y2="17.05" fill="none" stroke="#161616" stroke-miterlimit="10"/><line x1="10.61" y1="20.17" x2="13.26" y2="22.86" fill="none" stroke="#161616" stroke-miterlimit="10"/></g></svg>