<svg id="Vrstva_2" data-name="Vrstva 2" xmlns="http://www.w3.org/2000/svg" width="26.12" height="32.53" viewBox="0 0 26.12 32.53"><title>best</title><polyline points="11.06 19.2 18.06 31.32 21.02 28.46 24.99 27.32 17.99 15.2" fill="none" stroke="#161616" stroke-miterlimit="10" stroke-width="1.5"/><line x1="21.02" y1="28.46" x2="14.52" y2="17.2" fill="none" stroke="#161616" stroke-miterlimit="10" stroke-width="1.5"/><polyline points="15.06 19.2 8.06 31.32 5.09 28.46 1.13 27.32 8.13 15.2" fill="#fff" stroke="#161616" stroke-miterlimit="10" stroke-width="1.5"/><line x1="5.09" y1="28.46" x2="11.59" y2="17.2" fill="none" stroke="#161616" stroke-miterlimit="10" stroke-width="1.5"/><path d="M13.43,1.11l2-.32a2.26,2.26,0,0,1,2,.64l1.4,1.42a2.26,2.26,0,0,0,.6.43l1.78,0.89a2.26,2.26,0,0,1,1.22,1.68l0.3,2a2.26,2.26,0,0,0,.23.7l0.92,1.77a2.26,2.26,0,0,1,0,2.08l-0.92,1.77a2.26,2.26,0,0,0-.23.7l-0.3,2a2.26,2.26,0,0,1-1.22,1.68l-1.78.89a2.26,2.26,0,0,0-.6.43l-1.4,1.42a2.26,2.26,0,0,1-2,.64l-2-.32a2.26,2.26,0,0,0-.74,0l-2,.32a2.26,2.26,0,0,1-2-.64L7.35,19.8a2.26,2.26,0,0,0-.6-0.43L5,18.48A2.26,2.26,0,0,1,3.75,16.8l-0.3-2a2.26,2.26,0,0,0-.23-0.7L2.31,12.36a2.26,2.26,0,0,1,0-2.08L3.23,8.51a2.26,2.26,0,0,0,.23-0.7l0.3-2A2.26,2.26,0,0,1,5,4.17l1.78-.89a2.26,2.26,0,0,0,.6-0.43l1.4-1.42a2.26,2.26,0,0,1,2-.64l2,0.32A2.26,2.26,0,0,0,13.43,1.11Z" fill="#fff" stroke="#161616" stroke-miterlimit="10" stroke-width="1.5"/><polyline points="9.06 10.82 12.06 13.82 17.06 8.82" fill="#fff" stroke="#161616" stroke-miterlimit="10" stroke-width="1.5"/></svg>