<svg id="Vrstva_1" data-name="Vrstva 1" xmlns="http://www.w3.org/2000/svg" width="35" height="26" viewBox="0 0 35 26"><title>house</title><polyline points="5 10.5 5 21.5 27 21.5 27 10.5" fill="none" stroke="#161616" stroke-miterlimit="10"/><rect x="14" y="13.5" width="4" height="8" fill="none" stroke="#161616" stroke-miterlimit="10"/><rect x="8" y="14.5" width="3" height="3" fill="none" stroke="#161616" stroke-miterlimit="10"/><rect x="21" y="14.5" width="3" height="3" fill="none" stroke="#161616" stroke-miterlimit="10"/><polygon points="3 10.5 11 10.5 16 5.5 21 10.5 29 10.5 25 2.5 7 2.5 3 10.5" fill="none" stroke="#161616" stroke-miterlimit="10"/><rect x="9" y="0.5" width="2" height="2" fill="none" stroke="#161616" stroke-miterlimit="10"/><line x1="13" y1="23.5" x2="19" y2="23.5" fill="none" stroke="#161616" stroke-miterlimit="10"/><line x1="11" y1="25.5" x2="21" y2="25.5" fill="none" stroke="#161616" stroke-miterlimit="10"/><line x1="30" y1="19.5" x2="32" y2="19.5" fill="none" stroke="#161616" stroke-miterlimit="10"/><line x1="29" y1="21.5" x2="35" y2="21.5" fill="none" stroke="#161616" stroke-miterlimit="10"/><line x1="3" y1="21.5" y2="21.5" fill="none" stroke="#161616" stroke-miterlimit="10"/><line x1="3" y1="19.5" x2="2" y2="19.5" fill="none" stroke="#161616" stroke-miterlimit="10"/><polyline points="18 5.5 21 8.5 24 8.5" fill="none" stroke="#161616" stroke-miterlimit="10"/><line x1="17" y1="6.5" x2="13" y2="10.5" fill="none" stroke="#161616" stroke-miterlimit="10"/></svg>