<svg id="Vrstva_2" data-name="Vrstva 2" xmlns="http://www.w3.org/2000/svg" width="42.1" height="28.33" viewBox="0 0 42.1 28.33"><title>parubice</title><g id="hohcXi"><path d="M9.15,4.88H9.49A1.34,1.34,0,0,0,10.85,3l0,0c0.79-.17,1.57-0.55,1.51.93,0,0.66.79,0.9,1.43,0.41,0.46-.35.82-0.82,1.28-1.17a1.6,1.6,0,0,1,2.56.63c0.2,0.93.3,1.81,1.6,1.48a0.34,0.34,0,0,1,.28.14c0,1.11,1,.84,1.59,1.07h0c0.28,1.13,1.86.66,2.18,1.76a2.65,2.65,0,0,0,.51-0.13,1.25,1.25,0,0,1,.6-0.28C25.83,8,26,7.9,26.84,7a1.57,1.57,0,0,1,.53-0.23c0.26-.11.57-0.28,0.35-0.58-0.45-.6.14-0.65,0.4-0.8,0.67-.38,1.38-0.69,2.05-1.07a1,1,0,0,0,.73-0.68c-0.07-1,.54-0.88,1.15-0.84h0c0.05,0.3.29,0.23,0.48,0.24h0c1.13,0.63,1.93,1.72,3.15,2.24s1.54,0.3,2.39-.8A15.09,15.09,0,0,0,40.3,1.12c0.31-.72.68-0.25,0.81,0.29l0,0c-0.56.89-.32,2.07-1,2.89S40.35,6,39.64,6.72a2.87,2.87,0,0,0,.32.46c0.09,0.13.15,0.39,0,.41-1.05.15-.88,2-2.35,1.63-0.45-.12-0.36.36-0.3,0.66a19.91,19.91,0,0,0,1.19,3.25c0.25,0.69.88,1.47-.22,2.06a0.59,0.59,0,0,0-.15.53c0.3,1.06.38,2.22,1.34,3h0l0.25,0.25h0c0.19,0.51.89,0.82,0.31,1.63-0.33.46,0.4,0.16,0.64,0.25l0,0a1.65,1.65,0,0,1,.16,2.55,1,1,0,0,0-.35,1.38,1.15,1.15,0,0,1-.17,1.19,1,1,0,0,1-1-.22A11.56,11.56,0,0,0,34.42,25c-0.81,0-1.27.22-1.18,1.13,0,0.23.08,0.75-.21,0.65-0.79-.25-1.8.17-2.21,0-1.07-.53-1,0.31-1.43.83a3.63,3.63,0,0,0-3-2,2.53,2.53,0,0,1-.81-0.4v0a1,1,0,0,0-.48-0.95h0c-0.16-.4-0.49-0.15-0.74-0.2a1.19,1.19,0,0,0-.91-0.28c-0.49-.3-1.09-0.94-1.45-0.82a1,1,0,0,1-1.55-.76c-0.14-.38-0.53-0.23-0.82-0.26a0.9,0.9,0,0,1-.83-0.3c-0.81-1.46-.81-0.32-1.24.28s-0.56,1.81-1.8,1.17h0a0.23,0.23,0,0,0-.25-0.24h0c-0.63-.51-1.74-0.78-0.85-2l-1,.12,0,0a1,1,0,0,0-1.11-.83L12.27,20c0.11-.43,0-0.89-0.49-0.7-0.75.28-1-.26-1.42-0.6h0a0.22,0.22,0,0,0-.25-0.25h0a1.92,1.92,0,0,0-2.33-.38c-0.54.19-.91,0.26-1.17-0.43A2.8,2.8,0,0,0,5.2,16.5c-1-.62-1.06-1-0.28-1.91a2.39,2.39,0,0,0-.73-3.42c-0.39-.18-1-0.18-0.7-1,0.17-.41-0.43-0.55-0.81-0.59A2.68,2.68,0,0,1,.75,8.77c1.52-.18.63-1.86,1.58-2.38l0.22-.21C3.8,6.45,4.23,5.46,4.81,4.71H4.75A7,7,0,0,1,9.15,4.88Z" fill="none" stroke="#161616" stroke-linecap="round" stroke-linejoin="round" stroke-width="1.5"/></g></svg>