<svg id="Vrstva_1" data-name="Vrstva 1" xmlns="http://www.w3.org/2000/svg" width="29" height="20.25" viewBox="0 0 29 20.25"><title>pig</title><path d="M2,9q0-.81,0-1.63A1.25,1.25,0,0,1,3.35,6c0.46,0,.91,0,1.37,0a0.53,0.53,0,0,0,.34-0.2Q5.74,4.89,6.38,4a0.62,0.62,0,0,0,.13-0.42A15.81,15.81,0,0,0,6,1.79C5.75,1,5.94.7,6.84,0.64a4.45,4.45,0,0,1,2.61.81,0.51,0.51,0,0,0,.53,0A11.26,11.26,0,0,1,23.57,5a1.84,1.84,0,0,1,.19.27,1.19,1.19,0,0,0,1.1.78A1.28,1.28,0,0,1,26,7.14a1.34,1.34,0,0,1-.51,1.45,0.53,0.53,0,0,0-.22.58,7.42,7.42,0,0,1-2.57,7,1.39,1.39,0,0,0-.32.47,4.33,4.33,0,0,0-.26.73,3.34,3.34,0,0,1-3.73,2.34,3.89,3.89,0,0,1-2.06-.91,0.73,0.73,0,0,0-.42-0.17q-1.26,0-2.51,0a0.72,0.72,0,0,0-.41.18,3.81,3.81,0,0,1-4.12.55,2.91,2.91,0,0,1-1.59-1.81,3.26,3.26,0,0,0-1.1-1.72,6.57,6.57,0,0,1-1.85-2.77,0.85,0.85,0,0,0-.38-0.38c-0.26-.14-0.55-0.21-0.82-0.34A1.82,1.82,0,0,1,2,10.6C2,10.06,2,9.52,2,9ZM14.45,2c-0.94.17-1.87,0.32-2.78,0.53a1.16,1.16,0,0,0-.61.42,0.63,0.63,0,0,0,.05.79,0.76,0.76,0,0,0,.82.27c0.69-.14,1.37-0.3,2.07-0.37A7.27,7.27,0,0,1,16.95,4a0.76,0.76,0,0,0,.88-0.21A0.64,0.64,0,0,0,17.91,3a1.2,1.2,0,0,0-.64-0.45C16.34,2.31,15.39,2.15,14.45,2ZM7.71,7a0.8,0.8,0,1,0-.79.8A0.8,0.8,0,0,0,7.71,7Z" fill="none" stroke="#161616" stroke-miterlimit="10"/><line x1="24" y1="19.07" x2="29" y2="19.07" fill="none" stroke="#161616" stroke-miterlimit="10"/><line x1="25" y1="17.07" x2="26" y2="17.07" fill="none" stroke="#161616" stroke-miterlimit="10"/><line x1="4" y1="16.07" x2="3" y2="16.07" fill="none" stroke="#161616" stroke-miterlimit="10"/><line x1="6" y1="19.07" x2="4" y2="19.07" fill="none" stroke="#161616" stroke-miterlimit="10"/><line x1="3" y1="19.07" y2="19.07" fill="none" stroke="#161616" stroke-miterlimit="10"/></svg>