<svg id="Vrstva_1" data-name="Vrstva 1" xmlns="http://www.w3.org/2000/svg" width="41.23" height="22.56" viewBox="0 0 41.23 22.56"><title>price</title><rect x="11.23" y="0.5" width="10" height="6" fill="none" stroke="#161616" stroke-miterlimit="10"/><polygon points="0.71 15.99 7.78 8.92 11.31 9.63 12.02 13.16 4.95 20.23 0.71 15.99" fill="none" stroke="#161616" stroke-miterlimit="10"/><line x1="16.23" y1="6.5" x2="16.23" y2="21.5" fill="none" stroke="#161616" stroke-miterlimit="10"/><line x1="13.23" y1="21.5" x2="19.23" y2="21.5" fill="none" stroke="#161616" stroke-miterlimit="10"/><line x1="37.23" y1="22.5" x2="36.23" y2="13.5" fill="none" stroke="#161616" stroke-miterlimit="10"/><line x1="29.23" y1="13.5" x2="28.23" y2="22.5" fill="none" stroke="#161616" stroke-miterlimit="10"/><path d="M30.59,16.5h7.64v3H28.07a1,1,0,0,1-1-.83l-1.76-10,3-.52,1.33,7.53A1,1,0,0,0,30.59,16.5Z" fill="#fff" stroke="#161616" stroke-miterlimit="10"/><line x1="29.23" y1="13.5" x2="38.23" y2="13.5" fill="none" stroke="#161616" stroke-miterlimit="10"/><line x1="9.19" y1="13.16" x2="6.36" y2="15.99" fill="none" stroke="#161616" stroke-miterlimit="10"/><line x1="7.78" y1="11.75" x2="4.24" y2="15.28" fill="none" stroke="#161616" stroke-miterlimit="10"/><path d="M11.31,9.63A3.43,3.43,0,0,0,13.23,6.5" fill="none" stroke="#161616" stroke-miterlimit="10"/><line x1="22.23" y1="21.5" x2="25.23" y2="21.5" fill="none" stroke="#161616" stroke-miterlimit="10"/><line x1="40.23" y1="21.5" x2="41.23" y2="21.5" fill="none" stroke="#161616" stroke-miterlimit="10"/></svg>