<svg xmlns="http://www.w3.org/2000/svg" style="display: none;">
    <symbol id="area" viewBox="0 0 37.2 23.36">
      <defs><clipPath id="a" transform="translate(0 .36)"/></defs><title>area</title><path fill="none" stroke="#161616" stroke-miterlimit="10" d="M.61.86h10v15h-7l-3-15zM10.61.86v22h13v-4h4v-18h-17zM27.61.86h6l3 18h-9v-18z"/><g clip-path="url(#a)" fill="none" stroke="#161616" stroke-miterlimit="10"><path d="M15.1.35l12.52 12.67M19.1.35l8.39 8.55M23.31.36l4.27 4.51M10.52 16.13l6.74 6.73M10.61 12.06l10.65 10.8M10.52 7.98l13.09 13.2M10.57 3.9l14.75 14.96M11.6.86l16.02 16.19M10.61 20.17l2.65 2.69"/></g>
    </symbol>
    <symbol id="best" viewBox="0 0 26.12 32.53">
      <title>best</title><path fill="none" stroke="#161616" stroke-miterlimit="10" stroke-width="1.5" d="M11.06 19.2l7 12.12 2.96-2.86 3.97-1.14-7-12.12M21.02 28.46l-6.5-11.26"/><path fill="#fff" stroke="#161616" stroke-miterlimit="10" stroke-width="1.5" d="M15.06 19.2l-7 12.12-2.97-2.86-3.96-1.14 7-12.12"/><path fill="none" stroke="#161616" stroke-miterlimit="10" stroke-width="1.5" d="M5.09 28.46l6.5-11.26"/><path d="M13.43 1.11l2-.32a2.26 2.26 0 0 1 2 .64l1.4 1.42a2.26 2.26 0 0 0 .6.43l1.78.89a2.26 2.26 0 0 1 1.22 1.68l.3 2a2.26 2.26 0 0 0 .23.7l.92 1.77a2.26 2.26 0 0 1 0 2.08l-.92 1.77a2.26 2.26 0 0 0-.23.7l-.3 2a2.26 2.26 0 0 1-1.22 1.68l-1.78.89a2.26 2.26 0 0 0-.6.43l-1.4 1.42a2.26 2.26 0 0 1-2 .64l-2-.32a2.26 2.26 0 0 0-.74 0l-2 .32a2.26 2.26 0 0 1-2-.64L7.35 19.8a2.26 2.26 0 0 0-.6-.43L5 18.48a2.26 2.26 0 0 1-1.25-1.68l-.3-2a2.26 2.26 0 0 0-.23-.7l-.91-1.74a2.26 2.26 0 0 1 0-2.08l.92-1.77a2.26 2.26 0 0 0 .23-.7l.3-2A2.26 2.26 0 0 1 5 4.17l1.78-.89a2.26 2.26 0 0 0 .6-.43l1.4-1.42a2.26 2.26 0 0 1 2-.64l2 .32a2.26 2.26 0 0 0 .65 0z" fill="#fff" stroke="#161616" stroke-miterlimit="10" stroke-width="1.5"/><path fill="#fff" stroke="#161616" stroke-miterlimit="10" stroke-width="1.5" d="M9.06 10.82l3 3 5-5"/>
    </symbol>
    <symbol id="check" viewBox="0 0 53 53">
      <title>check</title><circle cx="26.5" cy="26.5" r="25" fill="none" stroke="#9b740a" stroke-linecap="round" stroke-linejoin="round" stroke-width="3"/><path fill="none" stroke="#9b740a" stroke-linecap="round" stroke-linejoin="round" stroke-width="3" d="M15.5 27l7 7 15-15"/>
    </symbol>
    <symbol id="close-old" viewBox="0 0 18.75 18.75">
      <path d="M1.5 1.5l15.75 15.75M17.25 1.5L1.5 17.25"/>
    </symbol>
    <symbol id="close" viewBox="0 0 19.99 19.99">
      <title>close</title><path fill="#fff" fill-rule="evenodd" d="M19.99 2.85L17.13 0 9.99 7.14 2.85 0 0 2.85l7.14 7.14L0 17.13l2.85 2.86 7.14-7.14 7.14 7.14 2.86-2.86-7.14-7.14 7.14-7.14"/>
    </symbol>
    <symbol id="fb" viewBox="0 0 29 29">
      <circle fill="none" stroke="#67AD2A" stroke-width="2" stroke-miterlimit="10" cx="14.5" cy="14.5" r="13.5"/><path fill="#67AD2A" d="M15.71 10.786h1.005V9.1h-1.23v.008c-1.927.07-2.323 1.184-2.357 2.355h-.004v1.354h-.984v1.686h.984V19.9h1.967v-5.397h1.477l.292-1.686H15.09v-1.222c0-.395.255-.81.62-.81z"/>
    </symbol>
    <symbol id="house" viewBox="0 0 35 26">
      <title>house</title><path fill="none" stroke="#161616" stroke-miterlimit="10" d="M5 10.5v11h22v-11"/><path fill="none" stroke="#161616" stroke-miterlimit="10" d="M14 13.5h4v8h-4zM8 14.5h3v3H8zM21 14.5h3v3h-3zM3 10.5h8l5-5 5 5h8l-4-8H7l-4 8zM9 .5h2v2H9zM13 23.5h6M11 25.5h10M30 19.5h2M29 21.5h6M3 21.5H0M3 19.5H2"/><path fill="none" stroke="#161616" stroke-miterlimit="10" d="M18 5.5l3 3h3M17 6.5l-4 4"/>
    </symbol>
    <symbol id="logo-white" viewBox="0 0 54.331 53.679">
      <path fill-rule="evenodd" clip-rule="evenodd" d="M30.79 32.877c-3.002 0-5.7 1.284-7.603 3.317l.007-.03-.132.172c-.132.143-.264.292-.39.45-1.208 1.315-4.33 3.936-6.707-.86l-.008.054c-1.052-1.922-2.83-3.367-4.985-3.966.025-.015.057-.022.057-.022-4.687-1.708-2.768-4.66-1.962-5.635.053-.05.093-.114.143-.167.09-.1.147-.157.147-.157l-.022.004c.803-.93 1.305-2.13 1.305-3.456 0-2.934-2.382-5.316-5.32-5.316S0 19.646 0 22.58c0 1.78.88 3.34 2.214 4.305l-.024.004c4.436 2.952 1.21 6.532-.136 8.266.007 0 .018-.004.025-.007C1.125 36.49.552 38.123.552 39.9c0 4.54 3.676 8.216 8.217 8.216 2.286 0 4.35-.927 5.838-2.436v.018s3.855-4.554 6.676 1.8l.004-.01c1.615 3.645 5.26 6.19 9.504 6.19 5.74 0 10.395-4.657 10.395-10.402 0-5.742-4.655-10.4-10.396-10.4zm20.303-13.242h.007c-1.056-.488-5.003-1.105-2.757-5.32l-.01.003c.68-1.013 1.077-2.23 1.077-3.545 0-3.516-2.85-6.365-6.366-6.365-1.57 0-2.985.588-4.09 1.526.004-.01.007-.03.01-.036-1.133.963-4.532 3.688-7.267-1.655 0 0-.007.032-.007.054C30.29 1.747 27.617 0 24.507 0c-4.543 0-8.224 3.68-8.224 8.22 0 4.54 3.68 8.224 8.224 8.224 2.086 0 3.973-.803 5.42-2.086v.047c.105-.107.24-.232.386-.364.004-.003.004-.003.007-.01 1.58-1.43 5.243-4.076 7.118-.235.003-.02.007-.032.007-.043.93 1.744 2.635 3 4.668 3.295l-.064.032s4.375.33 2.074 5.356h.004c-.278.642-.435 1.352-.435 2.1 0 2.935 2.382 5.32 5.32 5.32 2.94 0 5.318-2.385 5.318-5.32 0-2.2-1.332-4.087-3.237-4.9z"/>
    </symbol>
    <symbol id="meeting" viewBox="0 0 34.5 27.5">
      <title>meeting</title><path fill="none" stroke="#161616" stroke-linejoin="round" stroke-width="1.5" d="M.75.75v16h3v4l5-4h14v-16h-22z"/><path fill="none" stroke="#161616" stroke-linejoin="round" stroke-width="1.5" d="M22.75 6.75h11v16h-3v4l-5-4h-14v-6M5.75 5.75h6M5.75 8.75h11M5.75 11.75h11"/>
    </symbol>
    <symbol id="pardubice" viewBox="0 0 42.1 28.33">
      <title>parubice</title><path d="M9.15 4.88h.34A1.34 1.34 0 0 0 10.85 3c.79-.17 1.57-.55 1.51.93 0 .66.79.9 1.43.41.46-.35.82-.82 1.28-1.17a1.6 1.6 0 0 1 2.56.63c.2.93.3 1.81 1.6 1.48a.34.34 0 0 1 .28.14c0 1.11 1 .84 1.59 1.07.28 1.13 1.86.66 2.18 1.76a2.65 2.65 0 0 0 .51-.13 1.25 1.25 0 0 1 .6-.28C25.83 8 26 7.9 26.84 7a1.57 1.57 0 0 1 .53-.23c.26-.11.57-.28.35-.58-.45-.6.14-.65.4-.8.67-.38 1.38-.69 2.05-1.07a1 1 0 0 0 .73-.68c-.07-1 .54-.88 1.15-.84.05.3.29.23.48.24 1.13.63 1.93 1.72 3.15 2.24s1.54.3 2.39-.8a15.09 15.09 0 0 0 2.23-3.36c.31-.72.68-.25.81.29-.56.89-.32 2.07-1 2.89s.24 1.7-.47 2.42a2.87 2.87 0 0 0 .32.46c.09.13.15.39 0 .41-1.05.15-.88 2-2.35 1.63-.45-.12-.36.36-.3.66a19.91 19.91 0 0 0 1.19 3.25c.25.69.88 1.47-.22 2.06a.59.59 0 0 0-.15.53c.3 1.06.38 2.22 1.34 3l.25.25c.19.51.89.82.31 1.63-.33.46.4.16.64.25a1.65 1.65 0 0 1 .16 2.55 1 1 0 0 0-.35 1.38 1.15 1.15 0 0 1-.17 1.19 1 1 0 0 1-1-.22 11.56 11.56 0 0 0-4.89-.75c-.81 0-1.27.22-1.18 1.13 0 .23.08.75-.21.65-.79-.25-1.8.17-2.21 0-1.07-.53-1 .31-1.43.83a3.63 3.63 0 0 0-3-2 2.53 2.53 0 0 1-.81-.4 1 1 0 0 0-.48-.95c-.16-.4-.49-.15-.74-.2a1.19 1.19 0 0 0-.91-.28c-.49-.3-1.09-.94-1.45-.82a1 1 0 0 1-1.55-.76c-.14-.38-.53-.23-.82-.26a.9.9 0 0 1-.83-.3c-.81-1.46-.81-.32-1.24.28s-.56 1.81-1.8 1.17a.23.23 0 0 0-.25-.24c-.63-.51-1.74-.78-.85-2l-1 .12a1 1 0 0 0-1.11-.83l-.28-.14c.11-.43 0-.89-.49-.7-.75.28-1-.26-1.42-.6a.22.22 0 0 0-.25-.25 1.92 1.92 0 0 0-2.33-.38c-.54.19-.91.26-1.17-.43A2.8 2.8 0 0 0 5.2 16.5c-1-.62-1.06-1-.28-1.91a2.39 2.39 0 0 0-.73-3.42c-.39-.18-1-.18-.7-1 .17-.41-.43-.55-.81-.59a2.68 2.68 0 0 1-1.93-.81c1.52-.18.63-1.86 1.58-2.38l.22-.21c1.25.27 1.68-.72 2.26-1.47h-.06a7 7 0 0 1 4.4.17z" fill="none" stroke="#161616" stroke-linecap="round" stroke-linejoin="round" stroke-width="1.5"/>
    </symbol>
    <symbol id="pig" viewBox="0 0 29 20.25">
      <title>pig</title><path d="M2 9V7.37A1.25 1.25 0 0 1 3.35 6h1.37a.53.53 0 0 0 .34-.2q.68-.91 1.32-1.8a.62.62 0 0 0 .13-.42A15.81 15.81 0 0 0 6 1.79C5.75 1 5.94.7 6.84.64a4.45 4.45 0 0 1 2.61.81.51.51 0 0 0 .53 0A11.26 11.26 0 0 1 23.57 5a1.84 1.84 0 0 1 .19.27 1.19 1.19 0 0 0 1.1.78A1.28 1.28 0 0 1 26 7.14a1.34 1.34 0 0 1-.51 1.45.53.53 0 0 0-.22.58 7.42 7.42 0 0 1-2.57 7 1.39 1.39 0 0 0-.32.47 4.33 4.33 0 0 0-.26.73 3.34 3.34 0 0 1-3.73 2.34 3.89 3.89 0 0 1-2.06-.91.73.73 0 0 0-.42-.17H13.4a.72.72 0 0 0-.41.18 3.81 3.81 0 0 1-4.12.55 2.91 2.91 0 0 1-1.59-1.81 3.26 3.26 0 0 0-1.1-1.72 6.57 6.57 0 0 1-1.85-2.77.85.85 0 0 0-.38-.38c-.26-.14-.55-.21-.82-.34A1.82 1.82 0 0 1 2 10.6V9zm12.45-7c-.94.17-1.87.32-2.78.53a1.16 1.16 0 0 0-.61.42.63.63 0 0 0 .05.79.76.76 0 0 0 .82.27c.69-.14 1.37-.3 2.07-.37a7.27 7.27 0 0 1 2.95.36.76.76 0 0 0 .88-.21.64.64 0 0 0 .08-.79 1.2 1.2 0 0 0-.64-.45c-.93-.24-1.88-.4-2.82-.55zM7.71 7a.8.8 0 1 0-.79.8.8.8 0 0 0 .79-.8zM24 19.07h5M25 17.07h1M4 16.07H3M6 19.07H4M3 19.07H0" fill="none" stroke="#161616" stroke-miterlimit="10"/>
    </symbol>
    <symbol id="price" viewBox="0 0 41.23 22.56">
      <title>price</title><path fill="none" stroke="#161616" stroke-miterlimit="10" d="M11.23.5h10v6h-10zM.71 15.99l7.07-7.07 3.53.71.71 3.53-7.07 7.07-4.24-4.24zM16.23 6.5v15M13.23 21.5h6M37.23 22.5l-1-9M29.23 13.5l-1 9"/><path d="M30.59 16.5h7.64v3H28.07a1 1 0 0 1-1-.83l-1.76-10 3-.52 1.33 7.53a1 1 0 0 0 .95.82z" fill="#fff" stroke="#161616" stroke-miterlimit="10"/><path fill="none" stroke="#161616" stroke-miterlimit="10" d="M29.23 13.5h9M9.19 13.16l-2.83 2.83M7.78 11.75l-3.54 3.53M11.31 9.63a3.43 3.43 0 0 0 1.92-3.13M22.23 21.5h3M40.23 21.5h1"/>
    </symbol>
    <symbol id="scroll" viewBox="0 0 21.74 21.75">
      <title>scroll</title><path d="M19 8.25l-8.17 8.17L2.7 8.25 0 11l10.79 10.75.08-.08.08.08L21.74 11zm-4-4.12L10.87 0 6.75 4.13l4.13 4.13z" fill="#96731f" fill-rule="evenodd"/>
    </symbol></svg>